<svg width="28" height="26" viewBox="0 0 28 26" fill="none" xmlns="http://www.w3.org/2000/svg">
<path d="M25.5267 2.98765H9.24C8.49333 1.32278 6.81333 0.166626 4.85333 0.166626C2.14667 0.212872 0 2.3402 0 4.97624V21.0237C0 23.6597 2.14667 25.8333 4.85333 25.8333H4.9H25.5267C26.9267 25.8333 28 24.7234 28 23.3822V5.48494C28 4.09756 26.88 2.98765 25.5267 2.98765ZM0.933333 4.97624C0.933333 2.84891 2.66 1.09155 4.85333 1.09155C7.04667 1.09155 8.77333 2.80266 8.77333 4.97624V18.2027C7.88667 17.0003 6.48667 16.2141 4.85333 16.2141C3.26667 16.2141 1.82 17.0003 0.933333 18.2027V4.97624ZM0.933333 21.0699C0.933333 18.9426 2.66 17.1852 4.85333 17.1852C7.04667 17.1852 8.77333 18.8964 8.77333 21.0699C8.77333 23.2435 7.04667 24.9546 4.85333 24.9546C2.66 24.9546 0.933333 23.1973 0.933333 21.0699ZM27.0667 23.3822C27.0667 24.2147 26.3667 24.9084 25.5267 24.9084H7.7C8.91333 24.0297 9.70667 22.6423 9.70667 21.0237V4.97624C9.70667 4.60627 9.66 4.2363 9.56667 3.91257H25.5267C26.3667 3.91257 27.0667 4.60627 27.0667 5.48494V23.3822Z" fill="white"/>
</svg>
