<svg width="26" height="28" viewBox="0 0 26 28" fill="none" xmlns="http://www.w3.org/2000/svg">
<path d="M22.8542 0C24.5042 0 25.8333 1.39535 25.8333 3.06977V21.7209C25.8333 21.814 25.8333 21.8605 25.7875 21.9535L22.4417 27.5349C22.2583 27.814 21.9833 28 21.6625 28C21.3417 28 21.0667 27.814 20.8833 27.5349L17.5375 21.9535C17.4917 21.907 17.4917 21.814 17.4917 21.7209V3.06977C17.4917 1.39535 18.8667 0 20.5167 0H22.8542ZM8.64583 0.0930233C9.88333 0.0930233 10.9375 1.11628 10.9375 2.4186V25.6279C10.9375 26.9302 9.92917 27.9535 8.64583 27.9535H2.45833C1.175 27.9535 0.166667 26.9302 0.166667 25.6279V2.4186C0.166667 1.11628 1.175 0.0930233 2.45833 0.0930233H8.64583ZM24.9167 5.95349H18.4083V21.5814L21.6625 27.0698L24.9167 21.5814V5.95349ZM8.64583 1.02326H2.45833C1.67917 1.02326 1.08333 1.62791 1.08333 2.4186V4.04651H5.025C5.3 4.04651 5.48333 4.23256 5.48333 4.51163C5.48333 4.7907 5.3 4.97674 5.025 4.97674H1.08333V8.60465H2.64167C2.91667 8.60465 3.1 8.7907 3.1 9.06977C3.1 9.34884 2.91667 9.53488 2.64167 9.53488H1.08333V13.1628H5.025C5.3 13.1628 5.48333 13.3488 5.48333 13.6279C5.48333 13.907 5.3 14.093 5.025 14.093H1.08333V17.7209H2.64167C2.91667 17.7209 3.1 17.907 3.1 18.186C3.1 18.4651 2.91667 18.6512 2.64167 18.6512H1.08333V22.2791H5.025C5.3 22.2791 5.48333 22.4651 5.48333 22.7442C5.48333 23.0233 5.3 23.2093 5.025 23.2093H1.08333V25.5814C1.08333 26.3721 1.67917 26.9767 2.45833 26.9767H8.64583C9.425 26.9767 10.0208 26.3721 10.0208 25.5814V2.4186C10.0208 1.62791 9.425 1.02326 8.64583 1.02326ZM22.8542 0.930233H20.5167C19.3708 0.930233 18.4083 1.90698 18.4083 3.06977V5.02326H24.9167V3.06977C24.9167 1.90698 24 0.930233 22.8542 0.930233Z" fill="white"/>
</svg>
