<svg width="20" height="10" viewBox="0 0 20 10" fill="none" xmlns="http://www.w3.org/2000/svg">
<path d="M18.8305 3.77312L15.3536 0.341984C14.8763 -0.102793 14.1264 -0.102793 13.6492 0.278444C13.172 0.723221 13.172 1.42216 13.581 1.86693L15.5581 3.83666H1.37778C0.696031 3.83666 0.150635 4.34498 0.150635 4.98037C0.150635 5.61577 0.696031 6.12409 1.37778 6.12409H15.6263L13.6492 8.09381C13.172 8.53859 13.2402 9.23752 13.7174 9.6823C13.9219 9.87292 14.2628 10 14.5355 10C14.8763 10 15.149 9.87292 15.4217 9.6823L18.8986 6.25116C19.5122 5.48869 19.5122 4.47206 18.8305 3.77312Z" fill="#575445"/>
</svg>
